<svg width="512" height="512" viewBox="0 0 24 24" fill="none" xmlns="http://www.w3.org/2000/svg">
  <rect width="24" height="24" rx="4.8" fill="#0f172a"/>
  <path fill-rule="evenodd" clip-rule="evenodd" d="M12 2.5C6.75625 2.5 2.5 6.75625 2.5 12C2.5 17.2438 6.75625 21.5 12 21.5C17.2438 21.5 21.5 17.2438 21.5 12C21.5 6.75625 17.2438 2.5 12 2.5ZM1 12C1 5.925 5.925 1 12 1C18.075 1 23 5.925 23 12C23 18.075 18.075 23 12 23C5.925 23 1 18.075 1 12Z" fill="#4f46e5"/>
  <path d="M11.25 7.25C11.25 6.83579 11.5858 6.5 12 6.5C12.4142 6.5 12.75 6.83579 12.75 7.25V11.25H16.75C17.1642 11.25 17.5 11.5858 17.5 12C17.5 12.4142 17.1642 12.75 16.75 12.75H12.75V16.75C12.75 17.1642 12.4142 17.5 12 17.5C11.5858 17.5 11.25 17.1642 11.25 16.75V12.75H7.25C6.83579 12.75 6.5 12.4142 6.5 12C6.5 11.5858 6.83579 11.25 7.25 11.25H11.25V7.25Z" fill="#4f46e5"/>
</svg>
